<svg width="18" height="20" viewBox="0 0 18 20" fill="none" xmlns="http://www.w3.org/2000/svg">
<g id="Group">
<g id="Group_2">
<g id="Group_3">
<path id="Vector" d="M13.5803 14.2969C14.0241 14.2969 14.3839 13.9471 14.3839 13.5156C14.3839 13.0842 14.0241 12.7344 13.5803 12.7344C13.1365 12.7344 12.7767 13.0842 12.7767 13.5156C12.7767 13.9471 13.1365 14.2969 13.5803 14.2969Z" fill="#273431"/>
<path id="Vector_2" d="M17.1964 14.1406C17.6402 14.1406 18 13.7909 18 13.3594V10.4688C18 8.74562 16.5581 7.34375 14.7857 7.34375H13.8199V4.58852C13.8199 2.0584 11.657 0 8.99851 0C6.33998 0 4.17708 2.0584 4.17708 4.58852V7.34375H3.21429C1.44193 7.34375 0 8.74562 0 10.4688V16.875C0 18.5981 1.44193 20 3.21429 20H14.7857C16.5581 20 18 18.5981 18 16.875C18 16.4435 17.6402 16.0938 17.1964 16.0938C16.7526 16.0938 16.3929 16.4435 16.3929 16.875C16.3929 17.7366 15.6719 18.4375 14.7857 18.4375H3.21429C2.32811 18.4375 1.60714 17.7366 1.60714 16.875V10.4688C1.60714 9.60719 2.32811 8.90625 3.21429 8.90625H14.7857C15.6719 8.90625 16.3929 9.60719 16.3929 10.4688V13.3594C16.3929 13.7909 16.7526 14.1406 17.1964 14.1406ZM12.2128 7.34375H5.78423V4.58852C5.78423 2.91996 7.22616 1.5625 8.99851 1.5625C10.7709 1.5625 12.2128 2.91996 12.2128 4.58852V7.34375Z" fill="#273431"/>
<path id="Vector_3" d="M7.51353 14.2969C7.95733 14.2969 8.3171 13.9471 8.3171 13.5156C8.3171 13.0842 7.95733 12.7344 7.51353 12.7344C7.06973 12.7344 6.70996 13.0842 6.70996 13.5156C6.70996 13.9471 7.06973 14.2969 7.51353 14.2969Z" fill="#273431"/>
<path id="Vector_4" d="M4.49986 14.2969C4.94366 14.2969 5.30343 13.9471 5.30343 13.5156C5.30343 13.0842 4.94366 12.7344 4.49986 12.7344C4.05606 12.7344 3.69629 13.0842 3.69629 13.5156C3.69629 13.9471 4.05606 14.2969 4.49986 14.2969Z" fill="#273431"/>
<path id="Vector_5" d="M10.5268 14.2969C10.9706 14.2969 11.3304 13.9471 11.3304 13.5156C11.3304 13.0842 10.9706 12.7344 10.5268 12.7344C10.083 12.7344 9.72327 13.0842 9.72327 13.5156C9.72327 13.9471 10.083 14.2969 10.5268 14.2969Z" fill="#273431"/>
</g>
</g>
</g>
</svg>
