<svg width="24" height="24" viewBox="0 0 24 24" fill="none" xmlns="http://www.w3.org/2000/svg">
<g id="country/twemoji:flag-for-flag-colombia" clip-path="url(#clip0_1100_417)">
<path id="Vector" d="M21.3333 3.33337H2.66667C1.95942 3.33337 1.28115 3.61433 0.781049 4.11442C0.280952 4.61452 0 5.2928 0 6.00004L0 12H24V6.00004C24 5.2928 23.719 4.61452 23.219 4.11442C22.7189 3.61433 22.0406 3.33337 21.3333 3.33337Z" fill="#FBD116"/>
<path id="Vector_2" d="M0 12H24V16.6667H0V12Z" fill="#22408C"/>
<path id="Vector_3" d="M0 18C0 18.7072 0.280952 19.3855 0.781049 19.8856C1.28115 20.3857 1.95942 20.6666 2.66667 20.6666H21.3333C22.0406 20.6666 22.7189 20.3857 23.219 19.8856C23.719 19.3855 24 18.7072 24 18V16.6666H0V18Z" fill="#CE2028"/>
</g>
<defs>
<clipPath id="clip0_1100_417">
<rect width="24" height="24" fill="white"/>
</clipPath>
</defs>
</svg>
