<svg width="24" height="24" viewBox="0 0 24 24" fill="none" xmlns="http://www.w3.org/2000/svg">
<g id="country/twemoji:flag-for-flag-ecuador" clip-path="url(#clip0_1100_1358)">
<path id="Vector" d="M24 18C24 18.7073 23.719 19.3856 23.219 19.8857C22.7189 20.3858 22.0406 20.6667 21.3333 20.6667H2.66667C1.95942 20.6667 1.28115 20.3858 0.781049 19.8857C0.280952 19.3856 0 18.7073 0 18V6.00004C0 5.2928 0.280952 4.61452 0.781049 4.11442C1.28115 3.61433 1.95942 3.33337 2.66667 3.33337H21.3333C22.0406 3.33337 22.7189 3.61433 23.219 4.11442C23.719 4.61452 24 5.2928 24 6.00004V18Z" fill="#ED1C23"/>
<path id="Vector_2" d="M0 11.3334H24V16H0V11.3334Z" fill="#034EA2"/>
<path id="Vector_3" d="M24 11.3334V6.00004C24 5.2928 23.719 4.61452 23.219 4.11442C22.7189 3.61433 22.0406 3.33337 21.3333 3.33337H2.66667C1.95942 3.33337 1.28115 3.61433 0.781049 4.11442C0.280952 4.61452 0 5.2928 0 6.00004L0 11.3334H24Z" fill="#FFDD00"/>
<path id="Vector_4" d="M15.3333 12.6667C15.3333 13.0203 15.1928 13.3595 14.9428 13.6095C14.6927 13.8596 14.3536 14 14 14H9.99996C9.64634 14 9.3072 13.8596 9.05715 13.6095C8.8071 13.3595 8.66663 13.0203 8.66663 12.6667V10.6667C8.66663 10.3131 8.8071 9.97395 9.05715 9.7239C9.3072 9.47385 9.64634 9.33337 9.99996 9.33337H14C14.3536 9.33337 14.6927 9.47385 14.9428 9.7239C15.1928 9.97395 15.3333 10.3131 15.3333 10.6667V12.6667Z" fill="#FFDD00"/>
<path id="Vector_5" d="M14.6667 12C14.6667 12.736 14.0694 14 13.3334 14H10.6667C9.93071 14 9.33337 12.736 9.33337 12V11.3333C9.33337 10.9797 9.47385 10.6406 9.7239 10.3905C9.97395 10.1405 10.3131 10 10.6667 10H13.3334C13.687 10 14.0261 10.1405 14.2762 10.3905C14.5262 10.6406 14.6667 10.9797 14.6667 11.3333V12Z" fill="#034EA2"/>
<path id="Vector_6" d="M14 12C14 12.736 13.4027 14 12.6667 14H11.3333C10.5973 14 10 12.736 10 12V11.3333C10 10.9797 10.1405 10.6406 10.3905 10.3905C10.6406 10.1405 10.9797 10 11.3333 10H12.6667C13.0203 10 13.3594 10.1405 13.6095 10.3905C13.8595 10.6406 14 10.9797 14 11.3333V12Z" fill="#ED1C23"/>
<path id="Vector_7" d="M13.3153 9.42334C13.2266 9.74867 12.6746 10 11.9999 10C11.3253 10 10.7733 9.74867 10.6846 9.42334C9.88128 9.53801 9.99995 9.75201 9.99995 10C9.99995 10.368 10.5273 10.6667 11.9999 10.6667C13.4726 10.6667 13.9999 10.368 13.9999 10C13.9999 9.75201 14.1186 9.53801 13.3153 9.42334Z" fill="#6DBE46"/>
<path id="Vector_8" d="M12.6667 12.6667C12.6667 12.8435 12.5965 13.013 12.4714 13.1381C12.3464 13.2631 12.1769 13.3333 12 13.3333C11.8232 13.3333 11.6537 13.2631 11.5286 13.1381C11.4036 13.013 11.3334 12.8435 11.3334 12.6667V10.6667C11.3334 10.4899 11.4036 10.3203 11.5286 10.1953C11.6537 10.0702 11.8232 10 12 10C12.1769 10 12.3464 10.0702 12.4714 10.1953C12.5965 10.3203 12.6667 10.4899 12.6667 10.6667V12.6667Z" fill="#A6D388"/>
<path id="Vector_9" d="M14.3334 7.99999C14.6267 7.99999 14.9054 8.03466 15.1641 8.09133C14.7487 7.37399 13.3334 6.66666 12.0001 7.99999C10.6667 6.66666 9.25139 7.37399 8.83606 8.09133C9.10885 8.03108 9.38736 8.00046 9.66673 7.99999C10.9554 7.99999 12.0001 8.59733 12.0001 9.33333C12.0001 8.59733 13.0441 7.99999 14.3334 7.99999Z" fill="#662113"/>
<path id="Vector_10" d="M12 14C12.7363 14 13.3333 12.9554 13.3333 11.6667C13.3333 10.378 12.7363 9.33337 12 9.33337C11.2636 9.33337 10.6666 10.378 10.6666 11.6667C10.6666 12.9554 11.2636 14 12 14Z" fill="#8ED2E7"/>
<path id="Vector_11" d="M11.6666 11.3334C11.3093 11.3334 10.9753 11.42 10.6726 11.5634C10.672 11.598 10.6666 11.6314 10.6666 11.6667C10.6666 12.9554 11.264 14 12 14C12.6686 14 13.2166 13.1367 13.3133 12.014C13.097 11.798 12.8402 11.6267 12.5577 11.5099C12.2751 11.3931 11.9723 11.3331 11.6666 11.3334Z" fill="#6DBE46"/>
<path id="Vector_12" d="M12 15.3333C13.1046 15.3333 14 15.0349 14 14.6667C14 14.2985 13.1046 14 12 14C10.8954 14 10 14.2985 10 14.6667C10 15.0349 10.8954 15.3333 12 15.3333Z" fill="#FFCC4D"/>
<path id="Vector_13" d="M13.3333 15.3333C13.3333 15.8853 12.736 16 12 16C11.264 16 10.6666 15.8853 10.6666 15.3333C10.6666 14.7813 11.264 14 12 14C12.736 14 13.3333 14.7813 13.3333 15.3333Z" fill="#034EA2"/>
<path id="Vector_14" d="M11.3334 15.3333C11.3334 14.7813 11.632 14 12 14C12.368 14 12.6667 14.7813 12.6667 15.3333C12.6667 15.8853 12.368 16 12 16C11.632 16 11.3334 15.8853 11.3334 15.3333Z" fill="#ED1C23"/>
<path id="Vector_15" d="M11.3334 7.33336C11.3334 6.96536 11.632 7.33336 12 7.33336C12.368 7.33336 12.6667 6.96536 12.6667 7.33336C12.6667 7.51017 12.5965 7.67974 12.4714 7.80476C12.3464 7.92978 12.1769 8.00002 12 8.00002C11.8232 8.00002 11.6537 7.92978 11.5286 7.80476C11.4036 7.67974 11.3334 7.51017 11.3334 7.33336Z" fill="#CCD6DD"/>
<path id="Vector_16" d="M12 12C12.3682 12 12.6667 11.8508 12.6667 11.6667C12.6667 11.4826 12.3682 11.3334 12 11.3334C11.6319 11.3334 11.3334 11.4826 11.3334 11.6667C11.3334 11.8508 11.6319 12 12 12Z" fill="white"/>
<path id="Vector_17" d="M8.66667 10.6667C9.03486 10.6667 9.33333 10.5174 9.33333 10.3333C9.33333 10.1492 9.03486 10 8.66667 10C8.29848 10 8 10.1492 8 10.3333C8 10.5174 8.29848 10.6667 8.66667 10.6667Z" fill="#C1694F"/>
<path id="Vector_18" d="M9.33329 9.33329C9.70148 9.33329 9.99996 9.18406 9.99996 8.99996C9.99996 8.81586 9.70148 8.66663 9.33329 8.66663C8.9651 8.66663 8.66663 8.81586 8.66663 8.99996C8.66663 9.18406 8.9651 9.33329 9.33329 9.33329Z" fill="#C1694F"/>
<path id="Vector_19" d="M15.3333 10.6667C15.7015 10.6667 16 10.5174 16 10.3333C16 10.1492 15.7015 10 15.3333 10C14.9651 10 14.6666 10.1492 14.6666 10.3333C14.6666 10.5174 14.9651 10.6667 15.3333 10.6667Z" fill="#C1694F"/>
<path id="Vector_20" d="M14.6667 9.33329C15.0349 9.33329 15.3333 9.18406 15.3333 8.99996C15.3333 8.81586 15.0349 8.66663 14.6667 8.66663C14.2985 8.66663 14 8.81586 14 8.99996C14 9.18406 14.2985 9.33329 14.6667 9.33329Z" fill="#C1694F"/>
</g>
<defs>
<clipPath id="clip0_1100_1358">
<rect width="24" height="24" fill="white"/>
</clipPath>
</defs>
</svg>
