<svg width="24" height="24" viewBox="0 0 24 24" fill="none" xmlns="http://www.w3.org/2000/svg">
<g id="country/twemoji:flag-for-flag-mexico" clip-path="url(#clip0_1100_1275)">
<path id="Vector" d="M2.66667 3.33337C1.95942 3.33337 1.28115 3.61433 0.781049 4.11442C0.280952 4.61452 0 5.2928 0 6.00004L0 18C0 18.7073 0.280952 19.3856 0.781049 19.8857C1.28115 20.3858 1.95942 20.6667 2.66667 20.6667H7.33333V3.33337H2.66667Z" fill="#006847"/>
<path id="Vector_2" d="M21.3333 3.33337H16.6666V20.6667H21.3333C22.0405 20.6667 22.7188 20.3858 23.2189 19.8857C23.719 19.3856 24 18.7073 24 18V6.00004C24 5.2928 23.719 4.61452 23.2189 4.11442C22.7188 3.61433 22.0405 3.33337 21.3333 3.33337Z" fill="#CE1126"/>
<path id="Vector_3" d="M7.33337 3.33337H16.6667V20.6667H7.33337V3.33337Z" fill="#EEEEEE"/>
<path id="Vector_4" d="M15.3333 12C15.3333 12.8841 14.9821 13.7319 14.357 14.357C13.7319 14.9821 12.8841 15.3333 12 15.3333C11.1159 15.3333 10.2681 14.9821 9.64298 14.357C9.01786 13.7319 8.66667 12.8841 8.66667 12H8C8 13.0609 8.42143 14.0783 9.17157 14.8284C9.92172 15.5786 10.9391 16 12 16C13.0609 16 14.0783 15.5786 14.8284 14.8284C15.5786 14.0783 16 13.0609 16 12H15.3333Z" fill="#A6D388"/>
<path id="Vector_5" d="M9.02863 13.5127C9.00886 13.4736 8.98154 13.4387 8.94823 13.4102C8.91493 13.3817 8.8763 13.3601 8.83459 13.3465C8.79287 13.333 8.74889 13.3279 8.70519 13.3315C8.66149 13.3351 8.61892 13.3473 8.57996 13.3674C8.54089 13.3872 8.50611 13.4146 8.47762 13.4479C8.44913 13.4812 8.42748 13.5198 8.41392 13.5614C8.40036 13.6031 8.39515 13.6471 8.39859 13.6907C8.40203 13.7344 8.41405 13.777 8.43396 13.8161C8.49396 13.9341 8.55996 14.0494 8.63129 14.1601V14.1607L8.63396 14.1647V14.1654L8.63929 14.1727V14.1734L8.6413 14.1774L8.64196 14.1787L8.64463 14.1821V14.1827L8.64663 14.1861V14.1874L8.64863 14.1907L8.6493 14.1921L8.6513 14.1954L8.65196 14.1967L8.65396 14.1994L8.6553 14.2014L8.65663 14.2034L8.6573 14.2054L8.6593 14.2087L8.65996 14.2094L8.66129 14.2114L8.6633 14.2154L8.66396 14.2167L8.66596 14.2201L8.66663 14.2214L8.6713 14.2281V14.2287L8.67463 14.2334V14.2341C8.7093 14.2854 8.74463 14.3347 8.78196 14.3847C8.808 14.4197 8.84068 14.4492 8.87815 14.4716C8.91562 14.4939 8.95714 14.5086 9.00031 14.5149C9.04348 14.5212 9.08747 14.5188 9.12974 14.508C9.17201 14.4973 9.21173 14.4782 9.24663 14.4521C9.28178 14.426 9.31144 14.3933 9.33392 14.3557C9.35641 14.3182 9.37126 14.2766 9.37764 14.2333C9.38402 14.19 9.38179 14.1459 9.3711 14.1035C9.3604 14.061 9.34144 14.0211 9.31529 13.9861C9.20886 13.8351 9.11307 13.677 9.02863 13.5127ZM8.69729 12.4581C8.67245 12.274 8.66219 12.0884 8.66663 11.9027C8.66914 11.8144 8.6365 11.7287 8.57587 11.6645C8.51525 11.6002 8.4316 11.5627 8.3433 11.5601L8.3193 11.5607C8.23516 11.5644 8.15553 11.5998 8.09641 11.6598C8.0373 11.7197 8.00308 11.7999 8.00063 11.8841C7.99907 11.9532 7.99885 12.0223 7.99996 12.0914V12.1514L8.00063 12.1547V12.1734L8.0013 12.1754L8.00063 12.1767V12.1787L8.0013 12.1801V12.1994L8.00196 12.2014V12.2087L8.00263 12.2214L8.0033 12.2274V12.2347C8.0093 12.3414 8.01996 12.4474 8.03396 12.5527C8.04637 12.6398 8.09272 12.7185 8.16291 12.7716C8.2331 12.8247 8.32142 12.8478 8.40863 12.8361C8.45246 12.8303 8.49472 12.816 8.53298 12.7938C8.57124 12.7717 8.60474 12.7422 8.63157 12.7071C8.6584 12.672 8.67802 12.6319 8.6893 12.5891C8.70058 12.5464 8.70329 12.5019 8.69729 12.4581ZM12.2266 15.3247L12.2226 15.3254L12.14 15.3307C11.9821 15.3371 11.8239 15.3324 11.6666 15.3167C11.5787 15.3079 11.4908 15.3343 11.4223 15.3903C11.3539 15.4462 11.3105 15.5271 11.3016 15.6151C11.2928 15.703 11.3193 15.7909 11.3752 15.8593C11.4311 15.9278 11.512 15.9712 11.6 15.9801L11.6833 15.9874L11.686 15.9881L11.6873 15.9874L11.6893 15.9881H11.6906L11.6946 15.9887H11.6986L11.7006 15.9894H11.7013L11.7053 15.9887L11.7073 15.9894H11.7106L11.7146 15.9901L11.718 15.9907H11.7266L11.7306 15.9914H11.7393C11.8406 15.9981 11.9426 16.0014 12.0453 15.9994H12.0713L12.076 15.9987L12.08 15.9994H12.09L12.0933 15.9987H12.106L12.11 15.9981H12.1106L12.114 15.9987L12.1146 15.9981L12.1186 15.9987H12.1193L12.1226 15.9981H12.128L12.132 15.9974H12.136L12.1366 15.9981L12.1406 15.9974H12.1453L12.1486 15.9967H12.162L12.1653 15.9961H12.168L12.1706 15.9954L12.1733 15.9961H12.1766L12.1793 15.9954H12.1826C12.2106 15.9947 12.2393 15.9921 12.2673 15.9907C12.3536 15.9837 12.4337 15.943 12.4903 15.8774C12.5468 15.8117 12.5752 15.7265 12.5693 15.6401C12.5676 15.5968 12.5573 15.5544 12.5392 15.5151C12.521 15.4758 12.4953 15.4405 12.4634 15.4112C12.4316 15.3819 12.3943 15.3592 12.3537 15.3444C12.313 15.3295 12.2699 15.3228 12.2266 15.3247ZM10.6006 15.0261C10.4325 14.9481 10.2711 14.8565 10.118 14.7521C10.0587 14.7112 9.98782 14.6909 9.91596 14.6941C9.84615 14.697 9.77903 14.7218 9.72409 14.765C9.66914 14.8082 9.62915 14.8675 9.60977 14.9346C9.59039 15.0018 9.5926 15.0733 9.61608 15.1391C9.63956 15.2049 9.68313 15.2617 9.74063 15.3014L9.7413 15.3021L9.7453 15.3041L9.74929 15.3081L9.7533 15.3107L9.7573 15.3141C9.93463 15.4347 10.1226 15.5407 10.3186 15.6314C10.3583 15.6499 10.4012 15.6604 10.4449 15.6622C10.4886 15.6641 10.5322 15.6573 10.5733 15.6423C10.6144 15.6272 10.6521 15.6042 10.6842 15.5745C10.7164 15.5449 10.7423 15.5091 10.7606 15.4694C10.7794 15.4298 10.7902 15.3869 10.7923 15.3431C10.7944 15.2994 10.7878 15.2556 10.7729 15.2144C10.7581 15.1732 10.7352 15.1353 10.7056 15.103C10.676 15.0707 10.6404 15.0445 10.6006 15.0261ZM13.954 14.7607C13.8951 14.7635 13.838 14.7819 13.7886 14.8141C13.6327 14.9131 13.4691 14.9994 13.2993 15.0721C13.226 15.1012 13.1654 15.1555 13.1284 15.2252C13.0915 15.2949 13.0806 15.3755 13.0977 15.4525C13.1148 15.5296 13.1587 15.598 13.2217 15.6456C13.2847 15.6931 13.3625 15.7167 13.4413 15.7121C13.4809 15.7102 13.5199 15.7016 13.5566 15.6867L13.646 15.6467H13.6473L13.6513 15.6441L13.6526 15.6434L13.6553 15.6421H13.658L13.6606 15.6407L13.662 15.6394L13.666 15.6387L13.6673 15.6374L13.6693 15.6361L13.6726 15.6347L13.6746 15.6341L13.678 15.6327L13.6793 15.6321L13.6826 15.6307L13.684 15.6301C13.686 15.6287 13.686 15.6281 13.6873 15.6281L13.6886 15.6274L13.6926 15.6254H13.694L13.698 15.6234L13.702 15.6214L13.7033 15.6207L13.7066 15.6187L13.708 15.6181L13.712 15.6161L13.7126 15.6154L13.7173 15.6147L13.722 15.6121L13.7233 15.6114L13.726 15.6094H13.7273L13.7313 15.6067L13.7366 15.6054L13.7406 15.6027H13.7413L13.746 15.6001L13.7466 15.5994L13.756 15.5954L13.7606 15.5934L13.77 15.5881L13.7753 15.5861L13.7793 15.5841H13.78L13.7893 15.5787V15.5781L13.7933 15.5767H13.794L13.8086 15.5687L13.8133 15.5674L13.8226 15.5621L13.8273 15.5594H13.828C13.8286 15.5587 13.83 15.5581 13.8326 15.5581C13.834 15.5561 13.8353 15.5554 13.8366 15.5547L13.842 15.5521L13.846 15.5501V15.5494L13.8553 15.5454H13.856L13.8606 15.5427L13.8613 15.5421L13.8646 15.5401H13.8653L13.87 15.5374L13.874 15.5354H13.8753L13.8793 15.5327V15.5321L13.884 15.5301L13.8846 15.5294L13.8886 15.5274V15.5267L13.8926 15.5254L13.894 15.5247L13.8966 15.5227L13.8986 15.5221L13.902 15.5201L13.9033 15.5194L13.9066 15.5174L13.908 15.5167L13.912 15.5154C13.9113 15.5147 13.912 15.5147 13.9126 15.5147L13.9166 15.5127L13.918 15.5121L13.9206 15.5101L13.922 15.5094L13.926 15.5074L13.9273 15.5067C13.9273 15.5054 13.9286 15.5054 13.93 15.5047L13.932 15.5041L13.9346 15.5027L13.9366 15.5014L13.9393 15.5001L13.9413 15.4987L13.9433 15.4974L13.9453 15.4954L13.9486 15.4947L13.9513 15.4941L13.9526 15.4927L13.9553 15.4914L13.958 15.4894L13.9593 15.4887L13.962 15.4874L13.9646 15.4854L13.9666 15.4841C13.968 15.4847 13.9686 15.4841 13.97 15.4834L13.9713 15.4821L13.974 15.4807L13.976 15.4794L13.978 15.4781L13.9806 15.4767L13.9833 15.4747L13.9846 15.4741C13.986 15.4734 13.9886 15.4734 13.99 15.4721C13.9886 15.4714 13.9886 15.4714 13.99 15.4714L13.9926 15.4701L13.9973 15.4667L13.9986 15.4661L14.0033 15.4641V15.4634L14.0113 15.4594L14.0166 15.4561C14.0208 15.4531 14.0252 15.4506 14.03 15.4487H14.0306C14.0726 15.4234 14.116 15.3974 14.1573 15.3707C14.2317 15.3231 14.2841 15.2479 14.3031 15.1617C14.3221 15.0754 14.3061 14.9852 14.2586 14.9107C14.2235 14.8632 14.1776 14.8247 14.1246 14.7986C14.0715 14.7725 14.013 14.7595 13.954 14.7607ZM15.668 11.6821L15.652 11.6827C15.5662 11.6863 15.4852 11.7228 15.4257 11.7847C15.3662 11.8465 15.3329 11.9289 15.3326 12.0147C15.3326 12.1994 15.316 12.3861 15.2846 12.5674C15.2698 12.6546 15.2902 12.7442 15.3414 12.8164C15.3926 12.8886 15.4704 12.9375 15.5576 12.9524C15.6449 12.9672 15.7345 12.9468 15.8067 12.8956C15.8789 12.8444 15.9278 12.7666 15.9426 12.6794V12.6761L15.9433 12.6747L15.944 12.6734L15.9433 12.6721L15.944 12.6707V12.6694L15.9446 12.6681V12.6661L15.9453 12.6647V12.6587C15.9466 12.6581 15.9466 12.6567 15.9466 12.6561V12.6521C15.9609 12.5656 15.9725 12.4786 15.9813 12.3914L15.9806 12.3907L15.9813 12.3887V12.3881L15.982 12.3854V12.3781L15.9833 12.3761V12.3754L15.9826 12.3734V12.3721L15.9833 12.3701V12.3674L15.9846 12.3667L15.9833 12.3647V12.3621C15.9846 12.3614 15.9846 12.3607 15.9846 12.3601V12.3474L15.986 12.3454V12.3447C15.995 12.235 15.9997 12.1249 16 12.0147C15.9998 11.9267 15.9648 11.8423 15.9026 11.7799C15.8404 11.7176 15.756 11.6824 15.668 11.6821ZM15.3726 13.4794C15.3343 13.4582 15.2921 13.4447 15.2486 13.4398C15.2051 13.4349 15.161 13.4386 15.1189 13.4507C15.0768 13.4629 15.0375 13.4832 15.0032 13.5105C14.969 13.5379 14.9405 13.5717 14.9193 13.6101C14.8298 13.7724 14.7265 13.9267 14.6106 14.0714C14.5562 14.1407 14.5314 14.2287 14.5416 14.3162C14.5519 14.4037 14.5964 14.4836 14.6654 14.5384C14.7344 14.5932 14.8222 14.6184 14.9098 14.6086C14.9974 14.5988 15.0775 14.5548 15.1326 14.4861C15.21 14.3887 15.284 14.2867 15.3526 14.1827C15.354 14.1781 15.3573 14.1734 15.36 14.1694L15.3606 14.1687L15.3633 14.1647V14.1641L15.366 14.1594C15.3673 14.1581 15.3686 14.1567 15.3686 14.1554L15.3693 14.1561L15.372 14.1521V14.1514C15.3732 14.1502 15.3739 14.1485 15.374 14.1467L15.3753 14.1461L15.378 14.1421V14.1414C15.3793 14.1407 15.3793 14.1394 15.38 14.1381L15.3806 14.1374L15.3833 14.1334L15.384 14.1321L15.3853 14.1287L15.3873 14.1274L15.3886 14.1241H15.39L15.3913 14.1201L15.392 14.1187L15.3946 14.1161L15.3953 14.1147C15.396 14.1134 15.396 14.1121 15.3973 14.1114L15.398 14.1094L15.4006 14.1074C15.4006 14.1067 15.4006 14.1061 15.402 14.1054V14.1027L15.404 14.1014L15.406 14.0981L15.4066 14.0967L15.4086 14.0927L15.41 14.0914L15.4113 14.0887L15.4126 14.0867C15.4126 14.0861 15.4126 14.0854 15.414 14.0847C15.414 14.0841 15.414 14.0834 15.4153 14.0827L15.4173 14.0794L15.418 14.0774L15.4193 14.0754L15.4206 14.0734C15.422 14.0727 15.422 14.0721 15.422 14.0714C15.4233 14.0707 15.4233 14.0701 15.4233 14.0687L15.4246 14.0667L15.4266 14.0641L15.4286 14.0614V14.0594L15.43 14.0574L15.432 14.0547L15.434 14.0527V14.0507L15.4366 14.0474V14.0454C15.438 14.0447 15.4386 14.0441 15.4386 14.0427L15.44 14.0414L15.4413 14.0394L15.4433 14.0361L15.4446 14.0341V14.0327L15.4473 14.0294C15.4473 14.0287 15.4473 14.0281 15.4486 14.0274L15.4493 14.0254L15.4513 14.0227L15.4526 14.0201L15.454 14.0181C15.4546 14.0174 15.454 14.0161 15.4553 14.0154C15.4553 14.0147 15.4553 14.0141 15.4566 14.0141L15.458 14.0107L15.4593 14.0094L15.4606 14.0054L15.462 14.0047L15.4633 14.0021L15.4646 14.0007L15.466 13.9974L15.4673 13.9961L15.4686 13.9921C15.47 13.9914 15.4686 13.9907 15.4686 13.9907L15.4713 13.9874L15.472 13.9861L15.4746 13.9827V13.9821L15.4766 13.9781L15.478 13.9767L15.4793 13.9727V13.9721L15.4826 13.9687L15.4846 13.9647V13.9641L15.4873 13.9594L15.4886 13.9587L15.5053 13.9274C15.5467 13.8503 15.556 13.76 15.5311 13.6761C15.5063 13.5922 15.4493 13.5215 15.3726 13.4794Z" fill="#5C913B"/>
<path id="Vector_6" d="M12 14.6667C13.1046 14.6667 14 14.3682 14 14C14 13.6319 13.1046 13.3334 12 13.3334C10.8954 13.3334 10 13.6319 10 14C10 14.3682 10.8954 14.6667 12 14.6667Z" fill="#55ACEE"/>
<path id="Vector_7" d="M12.3334 14.6667C12.8857 14.6667 13.3334 14.3682 13.3334 14C13.3334 13.6319 12.8857 13.3334 12.3334 13.3334C11.7811 13.3334 11.3334 13.6319 11.3334 14C11.3334 14.3682 11.7811 14.6667 12.3334 14.6667Z" fill="#FFCC4D"/>
<path id="Vector_8" d="M12.7447 14.1826C12.6871 14.1822 12.6306 14.1668 12.5806 14.1382C12.5306 14.1095 12.4888 14.0684 12.4594 14.0189C12.4299 13.9694 12.4137 13.9131 12.4123 13.8555C12.4109 13.7979 12.4243 13.7409 12.4514 13.69C12.558 13.494 12.67 13.316 12.786 13.16C12.6905 13.164 12.595 13.166 12.4994 13.166C12.3154 13.166 12.1474 13.016 12.1474 12.832C12.1474 12.648 12.2774 12.4986 12.462 12.4986L12.5167 12.4993C12.714 12.4993 12.9167 12.4873 13.098 12.4706C13.1485 12.4655 13.1995 12.4723 13.247 12.4903C13.2944 12.5084 13.337 12.5373 13.3714 12.5746C13.3807 12.5673 13.39 12.56 13.4 12.554C13.4667 12.51 13.5287 12.4746 13.5867 12.4466C13.6279 12.4148 13.6762 12.3934 13.7274 12.384L13.7514 12.3793C13.8767 12.3386 13.9647 12.3333 14 12.3333C14.0522 12.3331 14.1038 12.3452 14.1504 12.3687C14.197 12.3921 14.2375 12.4263 14.2685 12.4683C14.2995 12.5103 14.3201 12.559 14.3287 12.6105C14.3373 12.662 14.3337 12.7148 14.318 12.7646C14.2634 12.942 14.1414 12.982 13.9274 13.0246C13.8714 13.047 13.8182 13.0756 13.7687 13.11C13.7084 13.1492 13.6371 13.1681 13.5653 13.164C13.4935 13.16 13.4249 13.1331 13.3694 13.0873C13.4148 13.1459 13.4394 13.218 13.4391 13.2922C13.4389 13.3664 13.4139 13.4383 13.368 13.4966C13.2547 13.6413 13.1434 13.8133 13.0374 14.0086C13.0088 14.0614 12.9666 14.1054 12.915 14.136C12.8635 14.1666 12.8047 14.1828 12.7447 14.1826ZM11.798 13.1233C11.7833 13.1234 11.7686 13.1225 11.754 13.1206C11.5159 13.0898 11.2806 13.0405 11.05 12.9733C11.008 12.9608 10.9689 12.9402 10.9349 12.9127C10.9009 12.8851 10.8726 12.851 10.8518 12.8125C10.8309 12.774 10.8178 12.7318 10.8133 12.6882C10.8088 12.6446 10.8129 12.6006 10.8254 12.5586L10.8294 12.5453L10.8214 12.5606C10.8 12.5989 10.7713 12.6325 10.7369 12.6596C10.7025 12.6868 10.6631 12.7069 10.6209 12.7188C10.5787 12.7306 10.5346 12.7341 10.4911 12.7289C10.4476 12.7238 10.4056 12.7101 10.3674 12.6886C10.1459 12.5659 9.9424 12.4131 9.7627 12.2346C9.70198 12.1718 9.66839 12.0876 9.66914 12.0002C9.6699 11.9128 9.70496 11.8292 9.76676 11.7674C9.82857 11.7056 9.91217 11.6705 9.99957 11.6697C10.087 11.669 10.1712 11.7026 10.234 11.7633C10.3654 11.8946 10.5194 12.01 10.6927 12.1066C10.7606 12.1447 10.8131 12.2053 10.841 12.278C10.8689 12.3507 10.8704 12.4309 10.8454 12.5046C10.8804 12.4345 10.939 12.3789 11.011 12.3477C11.0829 12.3165 11.1635 12.3116 11.2387 12.334C11.4227 12.3886 11.6247 12.4306 11.8387 12.4593C11.9227 12.47 11.9994 12.5122 12.0534 12.5774C12.1074 12.6426 12.1345 12.7259 12.1294 12.8104C12.1242 12.8948 12.0871 12.9742 12.0255 13.0323C11.964 13.0904 11.8827 13.123 11.798 13.1233ZM10.1634 11.564C9.87937 11.564 9.51204 11.454 9.28937 11.1913C8.94804 10.7886 8.74737 10.272 8.77804 9.87597C8.78604 9.76997 8.6827 9.68464 8.58137 9.65797C8.52337 9.64264 8.42137 9.63331 8.37337 9.73664C8.3548 9.77678 8.32106 9.80789 8.27955 9.82315C8.23804 9.8384 8.19217 9.83654 8.15204 9.81797C8.1119 9.79941 8.08078 9.76566 8.06553 9.72415C8.05028 9.68264 8.05214 9.63678 8.0707 9.59664C8.1747 9.37064 8.40804 9.26997 8.66537 9.33531C8.90404 9.39731 9.1327 9.61197 9.11004 9.90197C9.08604 10.21 9.2607 10.6413 9.54337 10.9753C9.69204 11.1513 9.9507 11.2226 10.1267 11.2293C10.27 11.2366 10.3427 11.204 10.358 11.19C10.3207 11.1013 9.8267 10.8413 9.61604 10.7306C9.4367 10.6366 9.38337 10.5073 9.37004 10.416C9.32537 10.1126 9.6367 9.80531 9.93804 9.50931C10.044 9.40464 10.1447 9.30597 10.1994 9.23331C10.2614 9.15131 10.2514 9.09664 10.2394 9.06264C10.1934 8.93797 9.99404 8.81464 9.75404 8.76131C9.53204 8.71197 9.38204 8.60464 9.3087 8.44197C9.21204 8.22797 9.26337 7.94797 9.4647 7.58531C9.47534 7.56618 9.48964 7.54933 9.50679 7.53573C9.52394 7.52213 9.5436 7.51203 9.56464 7.50603C9.58569 7.50002 9.60772 7.49822 9.62946 7.50073C9.6512 7.50324 9.67224 7.51 9.69137 7.52064C9.7105 7.53128 9.72735 7.54558 9.74095 7.56273C9.75455 7.57987 9.76464 7.59953 9.77065 7.62058C9.77665 7.64163 9.77845 7.66365 9.77595 7.6854C9.77344 7.70714 9.76667 7.72818 9.75604 7.74731C9.56604 8.08864 9.5847 8.24331 9.6127 8.30531C9.6407 8.36664 9.71204 8.40997 9.82604 8.43531C10.108 8.49797 10.4474 8.66531 10.5514 8.94664C10.6107 9.10731 10.5807 9.28064 10.466 9.43331C10.3967 9.52597 10.2874 9.63331 10.172 9.74731C10 9.91664 9.67937 10.232 9.70004 10.368C9.70404 10.396 9.7407 10.4206 9.77137 10.436C10.272 10.6986 10.6047 10.8886 10.6727 11.1213C10.6846 11.161 10.6882 11.2027 10.6834 11.2439C10.6786 11.285 10.6654 11.3248 10.6447 11.3606C10.58 11.4733 10.4454 11.5426 10.2547 11.56C10.226 11.5626 10.1947 11.564 10.1634 11.564Z" fill="#5C913B"/>
<path id="Vector_9" d="M13 12.6667C13.1841 12.6667 13.3333 12.3682 13.3333 12C13.3333 11.6319 13.1841 11.3334 13 11.3334C12.8159 11.3334 12.6666 11.6319 12.6666 12C12.6666 12.3682 12.8159 12.6667 13 12.6667Z" fill="#FFCC4D"/>
<path id="Vector_10" d="M11.528 11.4586C11.528 11.6506 11.298 11.806 11.014 11.806C10.7307 11.806 10.5 11.6506 10.5 11.4586C10.5 11.2666 10.73 11.1113 11.014 11.1113C11.2974 11.1113 11.528 11.2666 11.528 11.4586ZM10.7367 8.37398C10.77 8.51531 10.5854 8.68065 10.324 8.74265C10.0627 8.80465 9.82402 8.73998 9.79002 8.59865C9.75669 8.45665 9.94135 8.29131 10.202 8.22931C10.464 8.16798 10.7034 8.23198 10.7367 8.37398Z" fill="#FFCC4D"/>
<path id="Vector_11" d="M15.022 11.97C15.082 12.0167 15.184 11.484 15.1687 11.318C15.1687 11.3067 15.1493 10.954 15.224 10.702C15.27 10.6167 15.2727 9.98004 15.202 9.81271C15.258 9.80804 15.3253 9.79004 15.3333 9.72204C15.0747 9.81737 15.014 9.17737 14.7653 8.80937C14.524 8.44071 14.2247 8.22604 13.912 8.00204C13.9381 7.93661 13.9745 7.87582 14.02 7.82204C13.6367 8.01404 13.0393 7.31871 12.1567 7.37071C11.9587 7.39004 11.8647 7.40204 11.814 7.52337C11.6493 7.53671 11.482 7.57404 11.482 7.79071C11.482 7.84271 11.5293 7.93737 11.6347 7.93804C11.7787 7.98004 11.896 7.94737 11.994 8.14871L12.02 8.35671C12.02 8.35671 11.8913 8.19204 11.8207 8.16604L11.864 8.07737C11.7973 8.03871 11.6793 8.07004 11.6793 8.07004C11.6793 8.07004 11.4227 7.95004 11.2167 7.98204L11.1767 7.81537C11.1407 7.91804 11.06 7.91271 11.0487 8.00937C11.026 7.94004 10.996 7.85404 10.9747 7.78471C10.902 7.88337 10.9233 7.99004 10.8973 8.09271C10.8693 8.11671 10.812 8.11737 10.7973 8.05137C10.79 7.97004 10.78 7.96271 10.78 7.86604C10.728 7.95737 10.6653 8.00204 10.6447 8.15871L10.5893 7.98537C10.5913 8.19004 10.4153 8.31204 10.2487 8.45671C10.2013 8.54337 10.256 8.54404 10.26 8.58871L10.348 8.63271L10.506 8.62137C10.532 8.65404 10.5107 8.65671 10.5793 8.67737C10.7633 8.72871 10.9927 8.50804 11.1727 8.85537C11.09 8.92471 11.0067 9.08671 11.0333 9.11737C11.0667 9.11737 10.9667 9.16404 11.1013 9.12137C10.9613 9.25737 10.8667 9.43671 10.8667 9.44737C10.8507 9.48604 10.9227 9.44204 10.908 9.51204L10.9413 9.50804C10.622 9.85337 10.9307 10.2247 10.8967 10.424C10.95 10.51 10.9567 10.422 11.0233 10.4134C11.0793 10.6587 11.2407 10.8074 11.3393 11.0014L11.1313 11.0034C11.136 11.0954 11.2193 11.1827 11.2853 11.2634L11.146 11.3074C11.0564 11.352 10.9766 11.4141 10.9113 11.49C10.8653 11.602 11.1333 11.6287 11.2627 11.6487L11.258 11.784C11.46 11.8034 11.6933 11.7434 11.6933 11.732L11.744 11.6927L11.858 11.7554C11.896 11.7554 11.9553 11.6034 11.928 11.4867C12.0013 11.574 12.0707 11.7147 12.144 11.8027L12.2127 11.7934C12.2753 11.8927 12.3613 11.9914 12.424 12.0907L12.494 12.1174C12.5347 12.1034 12.5693 12.0987 12.5913 12.0187L12.6233 12.0747L12.734 11.9987L12.8113 11.9834L12.8693 12.078C12.9033 12.0654 12.9367 11.9914 12.9387 11.9127C12.9733 11.9814 12.9827 11.976 13.008 11.994L13.0593 11.886L13.336 12.1447L13.5453 12.1567C13.62 12.2074 13.8247 12.2394 13.8593 12.1574C14.0273 12.2294 14.2253 12.148 14.2153 12.068C14.37 12.1294 14.608 12.088 14.608 12.078C14.6367 12.0747 14.71 12.0027 14.6407 11.9487C14.1293 11.5927 13.3713 11.0034 13.0787 10.8614C13.0787 10.756 12.9993 10.3767 12.914 10.2727L12.9833 10.1567C13.1827 10.3427 13.2547 10.3247 13.3607 10.354C13.474 10.444 13.5133 10.5807 13.6267 10.7054L13.728 10.724C13.6454 10.5071 13.5198 10.3092 13.3587 10.142C13.468 10.1967 13.6493 10.3427 13.7707 10.4487C13.8507 10.5827 13.874 10.6894 13.9473 10.8574C14.0007 10.8914 14.0553 11.016 14.048 10.9127C14.0353 10.7187 13.8987 10.4114 13.8987 10.3894C14.116 10.5614 14.1133 10.8294 14.1793 10.9927C14.2347 11.0754 14.2627 11.186 14.2867 11.16L14.2227 10.656L14.1853 10.4714C14.346 10.564 14.4033 10.9174 14.4787 11.3414C14.4787 11.4087 14.506 11.4827 14.502 11.526C14.5367 11.5687 14.576 11.6867 14.5753 11.6167C14.5753 11.6167 14.5753 10.9274 14.528 10.7694C14.516 10.6847 14.548 10.5474 14.548 10.5474C14.6067 10.8334 14.6693 11.1434 14.7287 11.4287V11.6387L14.8167 11.7274C14.8333 11.554 14.8533 11.382 14.8707 11.21L14.8047 10.5934V10.4174C14.8033 10.3554 14.8613 10.3667 14.898 10.4374C14.9067 10.5887 14.9067 10.7067 14.9127 10.8574C14.9387 11.0294 14.9567 11.1554 14.9693 11.3747C14.9767 11.552 14.9847 11.9774 15.022 11.97Z" fill="#C1694F"/>
</g>
<defs>
<clipPath id="clip0_1100_1275">
<rect width="24" height="24" fill="white"/>
</clipPath>
</defs>
</svg>
